<svg width="146" height="43" viewBox="0 0 146 43" fill="none" xmlns="http://www.w3.org/2000/svg">
<path d="M22.2891 26.9297H8.41406L5.78906 42H1.38281L7.3125 7.875H27.8438L27.1875 11.5781H11.0625L9.04688 23.25H22.9453L22.2891 26.9297ZM40.2656 16.1719C42.3906 16.2031 44.2109 16.7812 45.7266 17.9062C47.2422 19.0312 48.3594 20.5859 49.0781 22.5703C49.8125 24.5391 50.0625 26.6953 49.8281 29.0391L49.7812 29.5547C49.4844 32.0234 48.75 34.2578 47.5781 36.2578C46.4062 38.2422 44.8906 39.7891 43.0312 40.8984C41.1719 42.0078 39.1328 42.5312 36.9141 42.4688C34.8047 42.4375 32.9844 41.8594 31.4531 40.7344C29.9375 39.6094 28.8281 38.0781 28.125 36.1406C27.4219 34.2031 27.1719 32.0703 27.375 29.7422C27.6094 27.1172 28.3203 24.7578 29.5078 22.6641C30.6953 20.5703 32.2188 18.9531 34.0781 17.8125C35.9531 16.6562 38.0156 16.1094 40.2656 16.1719ZM31.6406 29.7656C31.5312 30.75 31.5312 31.7734 31.6406 32.8359C31.7969 34.6797 32.3438 36.1484 33.2812 37.2422C34.2344 38.3359 35.5 38.9062 37.0781 38.9531C38.4844 39 39.7812 38.6562 40.9688 37.9219C42.1562 37.1719 43.1562 36.0469 43.9688 34.5469C44.7812 33.0469 45.3047 31.3828 45.5391 29.5547C45.6641 28.1172 45.6875 26.9062 45.6094 25.9219C45.4219 24.0312 44.8516 22.5391 43.8984 21.4453C42.9453 20.3516 41.6797 19.7734 40.1016 19.7109C37.9141 19.6641 36.0547 20.5234 34.5234 22.2891C32.9922 24.0547 32.0469 26.3672 31.6875 29.2266L31.6406 29.7656ZM67.0781 16.1719C69.2031 16.2031 71.0234 16.7812 72.5391 17.9062C74.0547 19.0312 75.1719 20.5859 75.8906 22.5703C76.625 24.5391 76.875 26.6953 76.6406 29.0391L76.5938 29.5547C76.2969 32.0234 75.5625 34.2578 74.3906 36.2578C73.2188 38.2422 71.7031 39.7891 69.8438 40.8984C67.9844 42.0078 65.9453 42.5312 63.7266 42.4688C61.6172 42.4375 59.7969 41.8594 58.2656 40.7344C56.75 39.6094 55.6406 38.0781 54.9375 36.1406C54.2344 34.2031 53.9844 32.0703 54.1875 29.7422C54.4219 27.1172 55.1328 24.7578 56.3203 22.6641C57.5078 20.5703 59.0312 18.9531 60.8906 17.8125C62.7656 16.6562 64.8281 16.1094 67.0781 16.1719ZM58.4531 29.7656C58.3438 30.75 58.3438 31.7734 58.4531 32.8359C58.6094 34.6797 59.1562 36.1484 60.0938 37.2422C61.0469 38.3359 62.3125 38.9062 63.8906 38.9531C65.2969 39 66.5938 38.6562 67.7812 37.9219C68.9688 37.1719 69.9688 36.0469 70.7812 34.5469C71.5938 33.0469 72.1172 31.3828 72.3516 29.5547C72.4766 28.1172 72.5 26.9062 72.4219 25.9219C72.2344 24.0312 71.6641 22.5391 70.7109 21.4453C69.7578 20.3516 68.4922 19.7734 66.9141 19.7109C64.7266 19.6641 62.8672 20.5234 61.3359 22.2891C59.8047 24.0547 58.8594 26.3672 58.5 29.2266L58.4531 29.7656ZM81.0234 29.2734C81.3359 26.6953 82.0469 24.3672 83.1562 22.2891C84.2656 20.2109 85.6328 18.6562 87.2578 17.625C88.8828 16.5938 90.6719 16.1016 92.625 16.1484C95.4531 16.2109 97.625 17.2422 99.1406 19.2422L101.578 6H105.82L99.5859 42H95.7188L96.1641 39.2812C94.1641 41.4688 91.6953 42.5312 88.7578 42.4688C86.4141 42.4062 84.5469 41.4922 83.1562 39.7266C81.7656 37.9453 81.0156 35.5625 80.9062 32.5781C80.8594 31.6562 80.8984 30.5547 81.0234 29.2734ZM85.1016 31.7109C85.0547 33.9453 85.4531 35.6797 86.2969 36.9141C87.1406 38.1484 88.375 38.7812 90 38.8125C92.4531 38.9219 94.6328 37.6875 96.5391 35.1094L98.5547 23.3906C97.6172 21.0781 95.9141 19.8906 93.4453 19.8281C91.7734 19.7812 90.2969 20.2891 89.0156 21.3516C87.75 22.3984 86.7812 23.875 86.1094 25.7812C85.4531 27.6719 85.1172 29.6484 85.1016 31.7109ZM110.883 42H106.664L111.07 16.6406H115.289L110.883 42ZM114.375 7.38281C115.094 7.35156 115.688 7.57031 116.156 8.03906C116.641 8.49219 116.883 9.09375 116.883 9.84375C116.867 10.5781 116.625 11.1797 116.156 11.6484C115.703 12.1172 115.109 12.3672 114.375 12.3984C113.641 12.4297 113.039 12.2187 112.57 11.7656C112.102 11.3125 111.875 10.7187 111.891 9.98438C111.906 9.25 112.141 8.64063 112.594 8.15625C113.047 7.67187 113.641 7.41406 114.375 7.38281ZM128.789 42.4688C125.633 42.4062 123.164 41.2422 121.383 38.9766C119.602 36.7109 118.852 33.8125 119.133 30.2812L119.25 29.2734C119.516 26.7578 120.258 24.4609 121.477 22.3828C122.711 20.3047 124.211 18.7422 125.977 17.6953C127.742 16.6328 129.648 16.125 131.695 16.1719C134.305 16.2344 136.352 17.1016 137.836 18.7734C139.32 20.4453 140.133 22.7109 140.273 25.5703C140.32 26.5859 140.289 27.6016 140.18 28.6172L139.922 30.5625H123.352C123.07 32.8594 123.445 34.8125 124.477 36.4219C125.523 38.0312 127.078 38.8672 129.141 38.9297C131.641 38.9922 133.953 37.8672 136.078 35.5547L138.516 37.6172C137.453 39.1484 136.078 40.3516 134.391 41.2266C132.719 42.0859 130.852 42.5 128.789 42.4688ZM131.484 19.7109C129.734 19.6641 128.203 20.2578 126.891 21.4922C125.594 22.7266 124.562 24.5625 123.797 27L136.125 27.0234L136.219 26.6484C136.469 24.6797 136.148 23.0469 135.258 21.75C134.383 20.4375 133.125 19.7578 131.484 19.7109Z" fill="#F5EDE2"/>
<path d="M112.5 12.5L111 6L113.5 7L115 3.5L117.5 1L119.5 3.5V7L117.5 10.5L115 12.5H112.5Z" fill="#02772A" stroke="#02772A"/>
</svg>
